<?xml version="1.0" encoding="utf-8"?>
<svg xmlns="http://www.w3.org/2000/svg" viewBox="0 0 64 64" width="512" height="512">
  <linearGradient id="DVKcEbMcrW4oP0w7__r8ea" x1="34" x2="34" y1="26.765" y2="37.078" gradientUnits="userSpaceOnUse">
    <stop offset="0" stop-color="#6dc7ff" />
    <stop offset="1" stop-color="#e6abff" />
  </linearGradient>
  <path fill="url(#DVKcEbMcrW4oP0w7__r8ea)" d="M35,27c0,0-6-2-6,10c0,0,10,0,10-6C38,30,35,27,35,27z" />
  <linearGradient id="DVKcEbMcrW4oP0w7__r8eb" x1="18" x2="18" y1="45.235" y2="35.359" gradientTransform="matrix(1 0 0 -1 0 64.11)" gradientUnits="userSpaceOnUse">
    <stop offset="0" stop-color="#6dc7ff" />
    <stop offset="1" stop-color="#e6abff" />
  </linearGradient>
  <path fill="url(#DVKcEbMcrW4oP0w7__r8eb)" d="M14,28l8-8h-7c-0.552,0-1,0.448-1,1V28z" />
  <linearGradient id="DVKcEbMcrW4oP0w7__r8ec" x1="33.361" x2="33.361" y1="4.835" y2="57.395" gradientUnits="userSpaceOnUse">
    <stop offset="0" stop-color="#1a6dff" />
    <stop offset="1" stop-color="#c822ff" />
  </linearGradient>
  <path fill="url(#DVKcEbMcrW4oP0w7__r8ec)" d="M60.722,9.396c0-1.068-0.416-2.073-1.172-2.829s-1.76-1.171-2.828-1.171s-2.073,0.416-2.828,1.171L48.461,12H9c-1.654,0-3,1.346-3,3v31c0,1.654,1.346,3,3,3h17v2h-4c-1.654,0-3,1.346-3,3v3h26v-3c0-1.654-1.346-3-3-3h-4v-2h17c1.654,0,3-1.346,3-3V15c0-0.364-0.074-0.709-0.194-1.032l1.744-1.744C60.306,11.469,60.722,10.464,60.722,9.396z M42,53c0.551,0,1,0.448,1,1v1H21v-1c0-0.552,0.449-1,1-1h4h12H42z M28,51v-2h8v2H28z M56,46c0,0.552-0.449,1-1,1H38H26H9c-0.551,0-1-0.448-1-1V15c0-0.552,0.449-1,1-1h37.461l-2,2H12c-1.103,0-2,0.897-2,2v25c0,1.103,0.897,2,2,2h40c1.103,0,2-0.897,2-2V18c0-0.071-0.01-0.139-0.018-0.208L56,15.774V46z M37.629,28.488l-1.414-1.414l3.536-3.536l2.829,2.829l-3.536,3.536L37.629,28.488z M38.075,31.762c0.033,0.903-0.232,1.639-0.808,2.24C35.69,35.652,32.098,36,30.081,36c-0.006,0-0.011,0-0.016,0c-0.186-3.141,0.569-5.85,2.038-7.195c0.667-0.611,1.412-0.877,2.221-0.793l3.544,3.543L38.075,31.762z M34.445,26.016c-1.339-0.113-2.634,0.343-3.693,1.314c-1.91,1.751-2.873,4.945-2.677,8.67H15v2h14v-0.049c0.027,0.004,0.05,0.018,0.078,0.019c0.061,0.004,0.429,0.026,0.995,0.026c1.983,0,6.406-0.278,8.638-2.61c0.957-1,1.41-2.238,1.359-3.683L52,19.774V43H12V18h30.461L34.445,26.016z M58.136,10.81L43.994,24.953l-2.829-2.829L55.308,7.981c0.756-0.755,2.072-0.755,2.828,0c0.378,0.378,0.586,0.88,0.586,1.415S58.514,10.432,58.136,10.81z" />
</svg>