<?xml version="1.0" encoding="utf-8"?>
<svg xmlns="http://www.w3.org/2000/svg" viewBox="0 0 64 64" width="512" height="512">
  <linearGradient id="A73awtCUrQz0ZvE3lGBYfa" x1="37" x2="37" y1="30.5" y2="35.699" gradientUnits="userSpaceOnUse" spreadMethod="reflect">
    <stop offset="0" stop-color="#6dc7ff" />
    <stop offset="1" stop-color="#e6abff" />
  </linearGradient>
  <path fill="url(#A73awtCUrQz0ZvE3lGBYfa)" d="M37 30.5A2.5 2.5 0 1 0 37 35.5A2.5 2.5 0 1 0 37 30.5Z" />
  <linearGradient id="A73awtCUrQz0ZvE3lGBYfb" x1="27" x2="27" y1="30.5" y2="35.699" gradientUnits="userSpaceOnUse" spreadMethod="reflect">
    <stop offset="0" stop-color="#6dc7ff" />
    <stop offset="1" stop-color="#e6abff" />
  </linearGradient>
  <path fill="url(#A73awtCUrQz0ZvE3lGBYfb)" d="M27 30.5A2.5 2.5 0 1 0 27 35.5A2.5 2.5 0 1 0 27 30.5Z" />
  <linearGradient id="A73awtCUrQz0ZvE3lGBYfc" x1="32" x2="32" y1="38" y2="42.257" gradientUnits="userSpaceOnUse" spreadMethod="reflect">
    <stop offset="0" stop-color="#6dc7ff" />
    <stop offset="1" stop-color="#e6abff" />
  </linearGradient>
  <path fill="url(#A73awtCUrQz0ZvE3lGBYfc)" d="M28,38c0,2.209,1.791,4,4,4s4-1.791,4-4H28z" />
  <linearGradient id="A73awtCUrQz0ZvE3lGBYfd" x1="32" x2="32" y1="5.5" y2="58.68" gradientUnits="userSpaceOnUse" spreadMethod="reflect">
    <stop offset="0" stop-color="#1a6dff" />
    <stop offset="1" stop-color="#c822ff" />
  </linearGradient>
  <path fill="url(#A73awtCUrQz0ZvE3lGBYfd)" d="M32 50A2 2 0 1 0 32 54A2 2 0 1 0 32 50Z" />
  <linearGradient id="A73awtCUrQz0ZvE3lGBYfe" x1="32" x2="32" y1="5.5" y2="58.68" gradientUnits="userSpaceOnUse" spreadMethod="reflect">
    <stop offset="0" stop-color="#1a6dff" />
    <stop offset="1" stop-color="#c822ff" />
  </linearGradient>
  <path fill="url(#A73awtCUrQz0ZvE3lGBYfe)" d="M44.802,39.644c0.373-0.842,0.665-1.725,0.866-2.644H47c2.757,0,5-2.243,5-5 c0-2.415-1.721-4.434-4-4.899V24c0-7.796-5.608-14.299-13-15.708V7.999C35,6.896,34.104,6,33.001,6h-2.002 C29.896,6,29,6.896,29,7.999v0.295C24.09,9.23,19.849,12.426,17.621,17H16c-2.206,0-4,1.794-4,4s1.794,4,4,4v2.101 c-2.279,0.465-4,2.484-4,4.899c0,2.757,2.243,5,5,5h1.332c0.202,0.918,0.494,1.802,0.866,2.644C14.618,43.459,12,49.015,12,55v3h40 v-3C52,49.015,49.382,43.459,44.802,39.644z M20,34v-5h1c1.654,0,3-1.346,3-3v-1h7c1.902,0,3.626-0.765,4.889-2H39 c0.552,0,1,0.448,1,1v2c0,1.654,1.346,3,3,3h1v5c0,6.617-5.383,12-12,12S20,40.617,20,34z M50,32c0,1.654-1.346,3-3,3h-1v-1v-1h1 c0.553,0,1-0.447,1-1s-0.447-1-1-1h-1v-2h1C48.654,29,50,30.346,50,32z M32,10c7.72,0,14,6.28,14,14v3h-1h-1h-1 c-0.552,0-1-0.448-1-1v-2c0-1.654-1.346-3-3-3h-1.685C37.75,20.089,38,19.074,38,18v-1H19.882C22.365,12.705,26.961,10,32,10z M14,21c0-1.103,0.897-2,2-2h19.899c-0.465,2.279-2.484,4-4.899,4H16C14.897,23,14,22.103,14,21z M22,25v1c0,0.552-0.448,1-1,1h-1 h-1h-1v-2H22z M18,35h-1c-1.654,0-3-1.346-3-3s1.346-3,3-3h1v2h-1c-0.553,0-1,0.447-1,1s0.447,1,1,1h1v1V35z M50,56h-6v-2h-2v2H22 v-2h-2v2h-6v-1c0-5.25,2.233-10.136,6.162-13.56C22.643,45.374,27.016,48,32,48s9.357-2.626,11.838-6.56 C47.767,44.864,50,49.75,50,55V56z" />
</svg>